PathFileType  4	(X/Y/Z) C:\Users\antoi\Documents\MyRepositories\mobilecap\ResultsAnalysis
DataRate	CameraRate	NumFrames	NumMarkers	Units	OrigDataRate	OrigDataStartFrame	OrigNumFrames
100.0	100.0	6	51	mm	100.0	1	138
Frame#	Time	r_knee			r_shank_antsup			r_ankle			r_calc			r_5meta			r_toe			L_knee			L_shank_antsup			L_ankle			L_calc			L_5meta			L_toe			r_sh2			r_sh3			r_sh4			L_sh2			L_sh3			r_thigh1			r_thigh2			r_thigh3			r_thigh4			r_thigh5			L_thigh1			L_thigh2			L_thigh3			L_thigh4			r.ASIS			r.PSIS			L.ASIS			L.PSIS			C7			R_Shoulder			L_Shoulder			R_Sternum			L_Sternum			R_humerus			R_elbow_med			R_elbow_lat			R_forearm			R_wrist_radius			R_wrist_ulna			L_humerus			L_elbow_med			L_elbow_lat			L_forearm			L_wrist_radius			L_wrist_ulna			R_HJC			L_HJC			R_HJC_reg			L_HJC_reg			
		X1	Y1	Z1	X2	Y2	Z2	X3	Y3	Z3	X4	Y4	Z4	X5	Y5	Z5	X6	Y6	Z6	X7	Y7	Z7	X8	Y8	Z8	X9	Y9	Z9	X10	Y10	Z10	X11	Y11	Z11	X12	Y12	Z12	X13	Y13	Z13	X14	Y14	Z14	X15	Y15	Z15	X16	Y16	Z16	X17	Y17	Z17	X18	Y18	Z18	X19	Y19	Z19	X20	Y20	Z20	X21	Y21	Z21	X22	Y22	Z22	X23	Y23	Z23	X24	Y24	Z24	X25	Y25	Z25	X26	Y26	Z26	X27	Y27	Z27	X28	Y28	Z28	X29	Y29	Z29	X30	Y30	Z30	X31	Y31	Z31	X32	Y32	Z32	X33	Y33	Z33	X34	Y34	Z34	X35	Y35	Z35	X36	Y36	Z36	X37	Y37	Z37	X38	Y38	Z38	X39	Y39	Z39	X40	Y40	Z40	X41	Y41	Z41	X42	Y42	Z42	X43	Y43	Z43	X44	Y44	Z44	X45	Y45	Z45	X46	Y46	Z46	X47	Y47	Z47	X48	Y48	Z48	X49	Y49	Z49	X50	Y50	Z50	X51	Y51	Z51	

1	0.00000000	226.32879	487.75268	-51.48229	278.33966	435.53543	-76.09057	303.83728	92.96681	-91.96520	239.76272	65.53585	-129.94393	414.39270	48.25669	-67.97363	458.15452	86.01189	-121.71407	-64.89496	479.41326	-292.93956	-80.23751	378.51815	-298.76316	-285.35948	140.30359	-246.11445	-356.20136	125.43564	-190.11719	-217.27660	39.28647	-294.29809	-161.26106	53.24978	-248.21526	290.91099	320.69014	-58.23574	203.70300	425.88058	-36.53003	214.99522	314.60337	-41.42373	-154.67252	432.88451	-290.63876	-217.71405	327.26658	-286.80662	181.24296	804.87294	-9.48871	220.42916	695.73856	-22.54388	172.15403	658.34658	10.34316	77.95736	770.71513	22.02332	113.15171	658.96982	3.98054	21.58984	730.11128	-357.30847	5.57181	597.37414	-327.51711	-78.82314	753.02098	-298.55526	-92.13907	613.46379	-276.95247	161.66911	946.66062	-58.02669	-40.38146	985.58674	-99.66196	126.29959	916.62022	-305.56012	-61.20446	986.64477	-198.56561	-54.97048	1388.78295	-191.34185	52.22863	1361.39746	-14.87374	26.24913	1349.88925	-372.79808	88.21904	1360.35719	-175.94404	88.07481	1360.28602	-216.88189	55.68066	1229.78880	53.85920	-9.75158	1017.95832	28.70675	-1.51209	1039.72282	97.95903	94.47991	933.33904	124.60062	160.35780	814.74152	137.11641	131.42232	800.38764	153.36058	77.20884	1245.81625	-428.91748	143.03885	1015.85838	-377.15876	151.97862	1048.40643	-448.60598	267.42624	1041.07422	-431.98652	415.74945	990.29010	-415.16164	407.63727	966.31810	-437.22698	80.21094	867.94654	-59.39877	43.81218	851.93228	-262.00376	89.09469	857.59740	-78.63332	54.85211	859.33740	-241.27631	
2	0.01000000	236.61329	488.26243	-51.25473	287.75709	435.04055	-76.61482	305.95122	92.41856	-92.64481	240.74100	66.03761	-130.48005	415.30862	46.48281	-68.24313	459.91474	82.59132	-122.56652	-46.88878	478.58540	-294.55205	-65.09784	377.96116	-300.94100	-277.96500	147.38481	-248.09886	-348.88958	136.81888	-191.82857	-215.30957	40.89562	-294.33069	-158.83795	52.67573	-248.80678	298.62290	319.96531	-58.85316	213.36137	426.55027	-35.96130	222.77267	315.13245	-40.91457	-137.52884	434.73536	-292.03752	-204.11162	331.55427	-288.36490	192.79115	806.15320	-9.74394	231.97040	697.45926	-23.53337	184.52059	659.77694	11.07529	90.91421	772.07440	23.34221	125.41017	660.62942	6.00205	36.61197	730.27586	-356.28051	22.33564	596.94472	-328.06339	-64.22219	751.39150	-297.35452	-75.43382	611.38700	-276.92828	174.45991	948.11990	-57.31902	-27.81054	986.54831	-98.30845	139.14236	917.53695	-304.58160	-48.65170	986.97317	-197.25042	-42.89813	1389.15803	-189.54219	65.17710	1361.67000	-13.60515	37.46374	1350.51942	-371.44284	100.41955	1360.96113	-174.77902	100.16611	1361.01579	-215.79594	69.07538	1229.77975	54.61375	3.91983	1017.91888	28.75124	12.28733	1039.61321	97.94760	107.27354	932.41831	124.53961	172.21425	813.28014	137.02685	143.07261	799.06984	153.15357	87.54868	1245.87485	-427.60021	150.61584	1015.07247	-375.44492	160.23903	1047.36720	-447.52265	275.21700	1038.82362	-430.30980	423.08033	986.28594	-413.09864	414.48332	962.51543	-435.32822	93.39586	869.18711	-58.19312	56.71537	852.65370	-260.70619	101.99476	859.39681	-77.40247	67.76402	860.09698	-239.91012	
3	0.02000000	246.85400	488.85661	-51.00687	297.05428	434.57972	-77.05443	307.89749	91.93976	-93.29258	241.63069	66.50138	-130.95185	416.14444	44.89414	-68.48936	461.49994	79.43547	-123.37088	-28.46683	477.72346	-296.36242	-49.45320	377.42320	-303.27285	-269.97841	154.63344	-250.23083	-340.76378	148.60252	-193.66118	-213.19981	42.78862	-294.45274	-156.30916	52.18054	-249.46789	306.12767	319.28959	-59.41100	222.86753	427.29358	-35.46879	230.31431	315.75120	-40.50911	-119.87069	436.57304	-293.60786	-189.95711	335.87141	-290.05331	204.43974	807.49569	-9.82396	243.51741	699.14584	-24.24827	196.76680	661.24488	11.79690	103.84016	773.52016	24.58406	137.53276	662.34116	7.90906	51.79407	730.45938	-355.30447	39.43464	596.53334	-328.72268	-49.45798	749.60739	-296.20614	-58.40066	609.17469	-277.06389	187.12684	949.62648	-56.49017	-15.32741	987.55223	-96.99318	151.92858	918.50049	-303.51209	-36.16511	987.33462	-195.97956	-30.83519	1389.61684	-187.73231	78.14143	1362.01691	-12.33772	48.62606	1351.18098	-370.08215	112.59551	1361.61728	-173.61805	112.19529	1361.78879	-214.70316	82.54903	1229.84537	55.36541	17.63350	1017.96974	28.81819	26.31689	1039.48087	97.86089	120.18195	931.58182	124.45778	184.17303	811.90303	136.86318	154.84783	797.84018	152.89622	97.78698	1245.97223	-426.30016	158.07974	1014.36063	-373.76453	168.37638	1046.31971	-446.43934	282.87638	1036.50407	-428.65604	430.19904	982.03957	-411.06866	421.12966	958.50030	-433.50149	106.44180	870.47776	-56.93168	69.58218	853.41173	-259.36923	114.78681	861.24917	-76.06630	80.60151	860.89503	-238.45720	
4	0.03000000	256.97912	489.57095	-50.71672	306.11904	434.15834	-77.32296	309.55166	91.57653	-93.87885	242.36722	66.89894	-131.31864	416.84060	43.61666	-68.68841	462.78649	76.73784	-124.08362	-9.27324	476.77962	-298.51887	-32.90228	376.93452	-305.86898	-260.89840	162.16278	-252.62488	-331.11132	161.09578	-195.72012	-210.81892	45.22197	-294.71365	-153.55652	51.88073	-250.26494	313.24484	318.68042	-59.84392	232.07417	428.14092	-35.09584	237.41761	316.50380	-40.27031	-101.27942	438.39339	-295.46223	-174.80155	340.25250	-291.95455	216.24171	808.92061	-9.59508	255.01964	700.74050	-24.49522	208.76711	662.75181	12.52532	116.68015	775.09490	25.69994	149.39347	664.12087	9.62898	67.24781	730.66884	-354.43129	57.12013	596.15440	-329.58087	-34.38050	747.53397	-295.14451	-40.79050	606.72335	-277.48927	199.56711	951.22017	-55.44779	-3.00348	988.62173	-95.76213	164.60796	919.54561	-302.28208	-23.80512	987.74941	-194.80206	-18.79445	1390.22271	-185.90581	91.13060	1362.49808	-11.07629	59.69391	1351.90484	-368.71240	124.72489	1362.36591	-172.46452	124.11592	1362.63819	-213.60234	96.15638	1230.04719	56.11163	31.42483	1018.18160	28.92978	40.73403	1039.32294	97.66231	133.29965	930.90083	124.33638	196.32084	810.68261	136.56928	166.85820	796.77372	152.54712	107.84884	1246.14093	-425.02731	165.33890	1013.77404	-372.14210	176.27801	1045.28618	-445.34889	290.30384	1034.06137	-427.04467	436.91961	977.35451	-409.10490	427.40367	954.10072	-431.80855	119.23439	871.85687	-55.57715	82.38446	854.23005	-257.96879	127.39157	863.18757	-74.54523	93.30171	861.76034	-236.85042	
5	0.04000000	266.86556	490.36865	-50.36073	314.84793	433.74203	-77.34287	310.85718	91.33948	-94.38093	242.92246	67.21632	-131.57217	417.36918	42.69041	-68.81894	463.72883	74.58572	-124.67204	10.92316	475.70067	-301.08636	-15.22381	376.54228	-308.76405	-250.38637	169.99986	-255.33545	-319.42039	174.43550	-198.07380	-208.04180	48.40239	-295.10454	-150.42927	51.94702	-251.25400	319.83943	318.11147	-60.08774	240.84689	429.05968	-34.83318	243.93909	317.36793	-40.19671	-81.50943	440.20660	-297.62055	-158.37611	344.73438	-294.07736	228.17015	810.38585	-8.98587	266.34340	702.15386	-24.19903	220.38499	664.24679	13.31105	129.33285	776.77558	26.68228	160.87446	665.93052	11.14758	82.99841	730.89577	-353.70778	75.49445	595.81965	-330.67738	-18.87964	745.07801	-294.17630	-22.49403	603.98870	-278.27771	211.70701	952.92145	-54.14955	9.10825	989.75030	-94.66747	177.13471	920.68643	-300.86012	-11.62812	988.21759	-193.76847	-6.80096	1391.00453	-184.06325	104.13399	1363.14732	-9.83176	70.63565	1352.71615	-367.33369	136.78357	1363.22528	-171.32226	135.89933	1363.57908	-212.50066	109.90696	1230.42331	56.84953	45.30655	1018.59218	29.10769	55.56688	1039.17125	97.37994	146.68179	930.42453	124.16029	208.71139	809.67222	136.11571	179.18312	795.92375	152.08051	117.69346	1246.40321	-423.78222	172.33140	1013.33217	-370.59009	183.85284	1044.32226	-444.23931	297.43961	1031.46521	-425.49193	443.09819	972.11197	-407.24278	433.17214	949.21258	-430.29478	131.69328	873.33905	-54.12347	95.09717	855.11182	-256.50660	139.76464	865.21252	-72.80526	105.81347	862.70441	-235.05867	
6	0.05000000	276.34615	491.15278	-49.91499	323.15296	433.26861	-77.06697	311.82450	91.20699	-94.78871	243.30226	67.45196	-131.72889	417.73301	42.08198	-68.86764	464.35371	72.96836	-125.12035	32.21025	474.45343	-304.04629	3.62384	376.30890	-311.91314	-238.28351	178.09893	-258.34917	-305.42928	188.56074	-200.73832	-204.71267	52.48193	-295.56937	-146.72253	52.59528	-252.47359	325.83708	317.52581	-60.09829	249.08626	429.96783	-34.61901	249.81622	318.26838	-40.22374	-60.49052	442.03923	-300.01866	-140.59283	349.35413	-296.36483	240.12679	811.79678	-7.98010	277.30209	703.28059	-23.38229	231.48428	665.63868	14.21843	141.65883	778.48521	27.55796	171.86822	667.68973	12.49590	98.99248	731.12239	-353.17237	94.51429	595.54278	-332.00276	-2.89770	742.20251	-293.28390	-3.53805	600.99515	-279.43185	223.51153	954.72000	-52.60772	20.97757	990.90448	-93.75517	189.47582	921.91513	-299.25611	0.32273	988.71860	-192.91918	5.11448	1391.95393	-182.21069	117.12715	1363.96857	-8.61910	81.43519	1353.62722	-365.94910	148.75207	1364.18779	-170.19628	147.53868	1364.60568	-211.41067	123.77412	1230.98468	57.57605	59.26987	1019.20411	29.37371	70.72045	1039.09250	97.10585	160.35219	930.17673	123.91892	221.37033	808.90399	135.49647	191.87667	795.31916	151.48834	127.31466	1246.77075	-422.55794	179.02631	1013.03018	-369.11187	191.05018	1043.49141	-443.10263	304.26081	1028.70538	-424.01258	448.64755	966.27038	-405.51942	438.34562	943.79738	-428.98663	143.78074	874.90756	-52.59614	107.69963	856.04054	-255.01004	151.89440	867.29462	-70.86201	118.10341	863.71898	-233.09097	
